<svg width="61" height="61" viewBox="0 0 61 61" fill="none" xmlns="http://www.w3.org/2000/svg">
<path d="M39.5063 26.7374L20.519 15.7881" stroke="#E87C40" stroke-width="4" stroke-linecap="round" stroke-linejoin="round"/>
<path d="M48.9999 40.6613V23.7837C48.9991 23.0438 48.8038 22.3171 48.4335 21.6765C48.0632 21.0359 47.531 20.5039 46.8902 20.134L32.1223 11.6952C31.4809 11.3248 30.7533 11.1299 30.0126 11.1299C29.272 11.1299 28.5444 11.3248 27.903 11.6952L13.1351 20.134C12.4943 20.5039 11.9621 21.0359 11.5918 21.6765C11.2215 22.3171 11.0261 23.0438 11.0254 23.7837V40.6613C11.0261 41.4012 11.2215 42.1279 11.5918 42.7685C11.9621 43.4091 12.4943 43.9411 13.1351 44.3111L27.903 52.7499C28.5444 53.1202 29.272 53.3151 30.0126 53.3151C30.7533 53.3151 31.4809 53.1202 32.1223 52.7499L46.8902 44.3111C47.531 43.9411 48.0632 43.4091 48.4335 42.7685C48.8038 42.1279 48.9991 41.4012 48.9999 40.6613Z" stroke="#E87C40" stroke-width="4" stroke-linecap="round" stroke-linejoin="round"/>
<path d="M11.5952 21.5896L30.0129 32.2435L48.4305 21.5896" stroke="#E87C40" stroke-width="4" stroke-linecap="round" stroke-linejoin="round"/>
<path d="M30.0127 53.4885V32.2227" stroke="#E87C40" stroke-width="4" stroke-linecap="round" stroke-linejoin="round"/>
<path d="M46.5063 19.7374L27.519 8.78809" stroke="#110303" stroke-width="4" stroke-linecap="round" stroke-linejoin="round"/>
<path d="M55.9999 33.6613V16.7837C55.9991 16.0438 55.8038 15.3171 55.4335 14.6765C55.0632 14.0359 54.531 13.5039 53.8902 13.134L39.1223 4.69517C38.4809 4.32484 37.7533 4.12988 37.0126 4.12988C36.272 4.12988 35.5444 4.32484 34.903 4.69517L20.1351 13.134C19.4943 13.5039 18.9621 14.0359 18.5918 14.6765C18.2215 15.3171 18.0261 16.0438 18.0254 16.7837V33.6613C18.0261 34.4012 18.2215 35.1279 18.5918 35.7685C18.9621 36.4091 19.4943 36.9411 20.1351 37.3111L34.903 45.7499C35.5444 46.1202 36.272 46.3151 37.0126 46.3151C37.7533 46.3151 38.4809 46.1202 39.1223 45.7499L53.8902 37.3111C54.531 36.9411 55.0632 36.4091 55.4335 35.7685C55.8038 35.1279 55.9991 34.4012 55.9999 33.6613Z" stroke="#110303" stroke-width="4" stroke-linecap="round" stroke-linejoin="round"/>
<path d="M18.5952 14.5896L37.0129 25.2435L55.4305 14.5896" stroke="#110303" stroke-width="4" stroke-linecap="round" stroke-linejoin="round"/>
<path d="M37.0127 46.4885V25.2227" stroke="#110303" stroke-width="4" stroke-linecap="round" stroke-linejoin="round"/>
</svg>
